<?xml version="1.0" encoding="utf-8"?>
<!-- Generator: Adobe Illustrator 26.5.0, SVG Export Plug-In . SVG Version: 6.00 Build 0)  -->
<svg version="1.1" id="Capa_1" xmlns="http://www.w3.org/2000/svg" xmlns:xlink="http://www.w3.org/1999/xlink" x="0px" y="0px"
	 viewBox="0 0 64 64" style="enable-background:new 0 0 64 64;" xml:space="preserve">
<style type="text/css">
	.st0{fill:#EB5A4D;}
</style>
<path class="st0" d="M51.8,15h-1.6v-1.9H35.6v1.7h-1.9v11H32v1.7h-2.7V29h-2.7v1.8h-1.9v1.6h-3.6v-1.6h-1.8v-1.7h-1.8v-3.4h-1.8v10
	h1.7v1.7h1.9v1.7h1.8v1.7h1.8v1.6h1.8v6.8h3.7v-1.7h-1.8v-1.7h1.8v-1.7h1.8v-1.7H32v1.7h1.7v5.1h3.6v-1.7h-1.8v-6.7h1.8v-1.7h1.9
	v-2.5H41v-5.9h1.9v1.6h1.8v-3.3H41v-3.4h7.2v-1.7h-5.4l0-1.8h9L51.8,15L51.8,15z M39.2,17.3h-1.8v-1.7h1.8V17.3z"/>
</svg>
